<?xml version="1.0" encoding="utf-8"?>
<!-- Generator: Adobe Illustrator 16.0.0, SVG Export Plug-In . SVG Version: 6.00 Build 0)  -->
<!DOCTYPE svg PUBLIC "-//W3C//DTD SVG 1.1//EN" "http://www.w3.org/Graphics/SVG/1.1/DTD/svg11.dtd">
<svg version="1.1" id="Layer_1" xmlns="http://www.w3.org/2000/svg" xmlns:xlink="http://www.w3.org/1999/xlink" x="0px" y="0px"
	 width="56px" height="56px" viewBox="0 0 56 56" enable-background="new 0 0 56 56" xml:space="preserve">
<g>
	<defs>
		<circle id="SVGID_1_" cx="28.229" cy="28.211" r="27.771"/>
	</defs>
	<clipPath id="SVGID_2_">
		<use xlink:href="#SVGID_1_"  overflow="visible"/>
	</clipPath>
	<g clip-path="url(#SVGID_2_)">
		<path fill-rule="evenodd" clip-rule="evenodd" fill="#CC0000" d="M31.95,56c-2.663,0-5.325,0-7.988,0
			c0.005-0.089,0.014-0.177,0.014-0.266c0.001-7.438,0.001-14.875,0-22.314c0-0.119-0.011-0.24-0.019-0.413
			c-0.202,0-0.375,0.001-0.548,0.001c-7.641,0-15.281-0.001-22.923,0.001c-0.162,0-0.324,0.012-0.486,0.018c0-3.206,0-6.412,0-9.618
			c0.074,0.006,0.147,0.017,0.221,0.017c7.789,0.001,15.578,0.002,23.365,0c0.126,0,0.252-0.022,0.391-0.036
			c0-0.268,0-0.482,0-0.694c0-7.208,0-14.414,0-21.62c0-0.213-0.009-0.426-0.015-0.64c2.664,0,5.325,0,7.988,0
			c-0.005,0.089-0.016,0.177-0.016,0.266c0,7.441,0,14.882,0.001,22.323c0,0.119,0.017,0.238,0.028,0.415c7.984,0,15.943,0,23.901,0
			c0,3.219,0,6.377,0,9.596c-7.989,0-15.949,0-23.931,0c0,0.255,0,0.449,0,0.644c0,7.247,0,14.491,0,21.737
			C31.935,55.609,31.945,55.806,31.95,56z"/>
		<path fill-rule="evenodd" clip-rule="evenodd" fill="#FFFFFF" d="M31.95,56c-0.005-0.194-0.016-0.391-0.016-0.585
			c0-7.246,0-14.49,0-21.737c0-0.194,0-0.389,0-0.644c7.981,0,15.941,0,23.931,0c0-3.219,0-6.377,0-9.596
			c-7.958,0-15.917,0-23.901,0c-0.012-0.177-0.028-0.295-0.028-0.415C31.935,15.583,31.935,8.142,31.935,0.7
			c0-0.088,0.011-0.177,0.016-0.266c0.591,0,1.183,0,1.774,0c0,4.877,0,9.754,0,14.75c1.899-1.888,3.699-3.674,5.499-5.464
			c3.107-3.095,6.215-6.191,9.322-9.286c0.591,0,1.185,0,1.774,0c-0.118,0.132-0.23,0.273-0.354,0.396
			c-5.2,5.17-10.396,10.346-15.61,15.493c-0.456,0.449-0.669,0.88-0.632,1.599c0.057,1.093,0.015,2.194,0.015,3.279
			c0.72,0.138,1.271,0.007,1.834-0.56C41.223,14.982,46.9,9.362,52.567,3.726c1.093-1.086,2.171-2.193,3.256-3.291
			c0.06,0.036,0.158,0.059,0.17,0.109C56.018,0.66,56,0.791,56,0.916C56,19.277,56,37.639,56,56c-2.129,0-4.259,0-6.39,0
			c-5.266-5.233-10.531-10.467-15.873-15.777c0,0.355,0,0.567,0,0.777c-0.005,5-0.008,10.001-0.013,15C33.133,56,32.541,56,31.95,56
			z M41.303,21.214c4.928,0,9.752,0,14.576,0c0-4.82,0-9.599,0-14.486C51.001,11.577,46.179,16.368,41.303,21.214z M55.896,55.954
			c0-1.827,0.009-3.5-0.011-5.174c-0.002-0.188-0.125-0.429-0.253-0.556c-4.943-4.926-9.892-9.845-14.846-14.752
			c-0.165-0.163-0.416-0.275-0.629-0.279c-1.566-0.022-3.133-0.013-4.702-0.011c-0.109,0-0.218,0.019-0.422,0.038
			C42.011,42.152,48.911,49.013,55.896,55.954z M42.319,35.193c4.563,4.532,9.032,8.975,13.545,13.458c0-4.548,0-8.999,0-13.458
			C51.368,35.193,46.907,35.193,42.319,35.193z"/>
		<path fill-rule="evenodd" clip-rule="evenodd" fill="#FFFFFF" d="M23.962,0.435c0.006,0.213,0.015,0.427,0.015,0.64
			c0,7.207,0,14.413,0,21.62c0,0.212,0,0.426,0,0.694c-0.139,0.014-0.265,0.036-0.391,0.036c-7.788,0.002-15.577,0.001-23.365,0
			c-0.073,0-0.146-0.011-0.221-0.017c0-0.712,0-1.424,0-2.137c4.493,0,8.987,0,13.573,0c-0.118-0.149-0.145-0.192-0.178-0.225
			C9.017,16.695,4.64,12.344,0.259,7.996C0.183,7.918,0.087,7.87,0,7.808c0-0.605,0-1.211,0-1.817
			c0.165,0.148,0.335,0.287,0.494,0.444c4.832,4.802,9.666,9.602,14.491,14.413c0.29,0.289,0.575,0.421,0.954,0.415
			c1.492-0.023,2.985-0.009,4.478-0.011c0.123,0,0.246-0.02,0.434-0.037c-0.154-0.167-0.249-0.275-0.35-0.375
			C13.777,14.157,7.053,7.475,0.329,0.795C0.229,0.697,0.11,0.625,0,0.542C0.118,0.505,0.237,0.44,0.355,0.439
			c1.981-0.007,3.964-0.005,5.946-0.005c5.266,5.235,10.532,10.468,15.874,15.777c0-0.356,0-0.567,0-0.778
			c0.004-5,0.008-10,0.012-14.999C22.779,0.435,23.371,0.435,23.962,0.435z"/>
		<path fill-rule="evenodd" clip-rule="evenodd" fill="#FFFFFF" d="M0,33.026c0.163-0.006,0.324-0.018,0.486-0.018
			c7.642-0.002,15.282-0.001,22.923-0.001c0.173,0,0.346-0.001,0.548-0.001c0.008,0.173,0.019,0.294,0.019,0.413
			c0,7.439,0,14.877,0,22.314c0,0.089-0.009,0.177-0.014,0.266c-0.591,0-1.183,0-1.774,0c0-4.877,0-9.753,0-14.749
			c-1.899,1.887-3.7,3.673-5.499,5.463c-3.108,3.095-6.215,6.19-9.322,9.286c-0.592,0-1.184,0-1.775,0
			c0.117-0.132,0.23-0.272,0.354-0.396c5.201-5.171,10.396-10.347,15.611-15.493c0.456-0.45,0.668-0.882,0.631-1.6
			c-0.057-1.094-0.015-2.194-0.015-3.28c-0.719-0.137-1.27-0.006-1.834,0.56C14.689,41.453,9.011,47.073,3.345,52.707
			C2.252,53.796,1.174,54.902,0.089,56c-0.029-0.125-0.084-0.248-0.084-0.374C-0.002,53.65,0,51.672,0,49.695
			c0.107-0.091,0.221-0.175,0.322-0.275c4.65-4.62,9.299-9.241,13.948-13.862c0.096-0.095,0.185-0.202,0.345-0.38
			c-0.943,0-1.794,0.001-2.646-0.001C7.979,35.173,3.99,35.167,0,35.163C0,34.451,0,33.738,0,33.026z"/>
		<path fill-rule="evenodd" clip-rule="evenodd" fill="#000066" d="M22.188,0.435c-0.004,5-0.008,10-0.012,14.999
			c0,0.211,0,0.422,0,0.778C16.833,10.903,11.567,5.669,6.302,0.435C11.597,0.435,16.892,0.435,22.188,0.435z"/>
		<path fill-rule="evenodd" clip-rule="evenodd" fill="#000066" d="M33.725,56c0.005-4.999,0.008-10,0.013-15
			c0-0.21,0-0.422,0-0.777C39.079,45.533,44.345,50.767,49.61,56C44.314,56,39.021,56,33.725,56z"/>
		<path fill-rule="evenodd" clip-rule="evenodd" fill="#000066" d="M48.546,0.435c-3.107,3.095-6.215,6.191-9.322,9.286
			c-1.8,1.79-3.6,3.576-5.499,5.464c0-4.996,0-9.873,0-14.75C38.666,0.435,43.604,0.435,48.546,0.435z"/>
		<path fill-rule="evenodd" clip-rule="evenodd" fill="#000066" d="M7.367,56c3.107-3.096,6.214-6.191,9.322-9.286
			c1.799-1.79,3.6-3.576,5.499-5.463c0,4.996,0,9.872,0,14.749C17.247,56,12.307,56,7.367,56z"/>
		<path fill-rule="evenodd" clip-rule="evenodd" fill="#000066" d="M0,35.163c3.99,0.004,7.979,0.01,11.969,0.014
			c0.852,0.002,1.703,0.001,2.646,0.001c-0.16,0.178-0.249,0.285-0.345,0.38C9.621,40.179,4.972,44.8,0.322,49.42
			C0.221,49.521,0.107,49.604,0,49.695C0,44.852,0,40.006,0,35.163z"/>
		<path fill-rule="evenodd" clip-rule="evenodd" fill="#CC0000" d="M55.823,0.435c-1.085,1.098-2.163,2.205-3.256,3.291
			C46.9,9.362,41.223,14.982,35.573,20.643c-0.563,0.566-1.114,0.697-1.834,0.56c0-1.085,0.042-2.186-0.015-3.279
			c-0.037-0.719,0.176-1.15,0.632-1.599c5.214-5.147,10.41-10.323,15.61-15.493c0.123-0.124,0.235-0.264,0.354-0.396
			C52.155,0.435,53.99,0.435,55.823,0.435z"/>
		<path fill-rule="evenodd" clip-rule="evenodd" fill="#CC0000" d="M0.089,56c1.085-1.098,2.163-2.204,3.256-3.293
			c5.667-5.634,11.345-11.254,16.994-16.916c0.564-0.565,1.115-0.696,1.834-0.56c0,1.086-0.042,2.187,0.015,3.28
			c0.037,0.718-0.176,1.149-0.631,1.6c-5.215,5.146-10.41,10.322-15.611,15.493C5.822,55.728,5.709,55.868,5.592,56
			C3.757,56,1.923,56,0.089,56z"/>
		<path fill-rule="evenodd" clip-rule="evenodd" fill="#CC0000" d="M0,0.542c0.11,0.084,0.229,0.156,0.329,0.254
			c6.725,6.68,13.449,13.362,20.172,20.044c0.101,0.1,0.195,0.208,0.35,0.375c-0.188,0.017-0.312,0.037-0.434,0.037
			c-1.493,0.002-2.986-0.012-4.478,0.011c-0.379,0.006-0.664-0.126-0.954-0.415c-4.825-4.812-9.659-9.611-14.491-14.413
			C0.335,6.277,0.165,6.139,0,5.991C0,4.174,0,2.358,0,0.542z"/>
		<path fill-rule="evenodd" clip-rule="evenodd" fill="#000066" d="M0,7.808C0.087,7.87,0.183,7.918,0.259,7.996
			c4.38,4.348,8.758,8.699,13.136,13.051c0.034,0.033,0.061,0.075,0.178,0.225c-4.586,0-9.08,0-13.573,0C0,16.784,0,12.296,0,7.808z
			"/>
		<path fill-rule="evenodd" clip-rule="evenodd" fill="#000066" d="M41.303,21.214c4.876-4.846,9.698-9.638,14.576-14.486
			c0,4.887,0,9.666,0,14.486C51.055,21.214,46.23,21.214,41.303,21.214z"/>
		<path fill-rule="evenodd" clip-rule="evenodd" fill="#CC0000" d="M55.896,55.954c-6.985-6.941-13.886-13.802-20.862-20.733
			c0.204-0.02,0.313-0.038,0.422-0.038c1.569-0.002,3.136-0.012,4.702,0.011c0.213,0.004,0.464,0.116,0.629,0.279
			c4.954,4.907,9.902,9.826,14.846,14.752c0.128,0.127,0.251,0.367,0.253,0.556C55.905,52.454,55.896,54.127,55.896,55.954z"/>
		<path fill-rule="evenodd" clip-rule="evenodd" fill="#000066" d="M42.319,35.193c4.588,0,9.049,0,13.545,0
			c0,4.459,0,8.91,0,13.458C51.352,44.168,46.882,39.726,42.319,35.193z"/>
	</g>
</g>
</svg>
