<?xml version="1.0" encoding="utf-8"?>
<!-- Generator: Adobe Illustrator 17.0.1, SVG Export Plug-In . SVG Version: 6.00 Build 0)  -->
<!DOCTYPE svg PUBLIC "-//W3C//DTD SVG 1.1//EN" "http://www.w3.org/Graphics/SVG/1.1/DTD/svg11.dtd">
<svg version="1.1" id="Capa_1" xmlns="http://www.w3.org/2000/svg" xmlns:xlink="http://www.w3.org/1999/xlink" x="0px" y="0px"
	 width="17px" height="22.812px" viewBox="9 14.362 17 22.812" enable-background="new 9 14.362 17 22.812" xml:space="preserve">
<g>
	<path fill="#BD7F1C" d="M18.611,33.974h-2.75c-0.247,0-0.449,0.201-0.449,0.449v2.301c0,0.247,0.201,0.449,0.449,0.449h2.75
		c0.247,0,0.449-0.201,0.449-0.449v-2.301C19.06,34.176,18.859,33.974,18.611,33.974z"/>
	<path fill="#BD7F1C" d="M15.715,21.007c0.04,0,0.081-0.005,0.123-0.014l2.677-0.611c0.152-0.035,0.279-0.131,0.348-0.265
		c0.069-0.134,0.075-0.293,0.016-0.437l-1.248-3.045c-0.104-0.254-0.291-0.281-0.366-0.281s-0.262,0.027-0.366,0.281l-1.55,3.78
		c-0.062,0.15-0.053,0.303,0.025,0.419C15.447,20.944,15.572,21.007,15.715,21.007z"/>
	<path fill="#BD7F1C" d="M13.832,25.617l7.968,2.969c0.063,0.023,0.125,0.035,0.183,0.035c0.129,0,0.242-0.058,0.31-0.159
		c0.043-0.065,0.104-0.204,0.021-0.407l-2.358-5.751c-0.093-0.227-0.323-0.379-0.573-0.379c-0.044,0-0.087,0.005-0.129,0.014
		l-4.582,1.045c-0.241,0.055-0.483,0.26-0.577,0.489l-0.58,1.416c-0.057,0.14-0.056,0.293,0.004,0.431
		C13.579,25.459,13.69,25.564,13.832,25.617z"/>
	<path fill="#BD7F1C" d="M23.883,31.875l-0.197-0.477c-0.088-0.215-0.312-0.43-0.531-0.512l-9.979-3.717
		c-0.063-0.023-0.129-0.035-0.197-0.035c-0.23,0-0.443,0.142-0.53,0.353l-1.803,4.39c-0.063,0.155-0.052,0.315,0.032,0.44
		c0.085,0.127,0.231,0.199,0.401,0.199h12.37c0.17,0,0.316-0.073,0.401-0.199C23.935,32.191,23.947,32.031,23.883,31.875z"/>
</g>
</svg>
