<?xml version="1.0" encoding="utf-8"?>
<!-- Generator: Adobe Illustrator 17.0.1, SVG Export Plug-In . SVG Version: 6.00 Build 0)  -->
<!DOCTYPE svg PUBLIC "-//W3C//DTD SVG 1.1//EN" "http://www.w3.org/Graphics/SVG/1.1/DTD/svg11.dtd">
<svg version="1.1" id="Layer_1" xmlns="http://www.w3.org/2000/svg" xmlns:xlink="http://www.w3.org/1999/xlink" x="0px" y="0px"
	 width="20.081px" height="18.167px" viewBox="18.874 15.583 20.081 18.167" enable-background="new 18.874 15.583 20.081 18.167"
	 xml:space="preserve">
<g>
	<path fill="#BD7F1C" d="M30.795,28.638l5.168-1.834c-0.263,2.588-1.244,4.187-2.375,5.171"/>
	<path fill="#BD7F1C" d="M32.972,32.45c0,0-1.239,0.909-2.329,0.939c0,0-6.168,0.458-6.898-6.729l6.118,2.077"/>
	<path fill="#BD7F1C" d="M30.189,28.031l4.995-1.776c0,0,0.24-2.139-0.442-3.912l-7.247,4.771L30.189,28.031z"/>
	<path fill="#BD7F1C" d="M30.237,24.378l-4.683-2.299c0,0,0.391-2.162,1.588-3.641l4.741,4.86L30.237,24.378z"/>
	<path fill="#BD7F1C" d="M32.54,22.864l-2.132-2.191l2.488-2.067c1.083,1.167,1.074,2.804,1.069,3.316L32.54,22.864z"/>
	<path fill="#BD7F1C" d="M28.119,18.323c0,0,0.458-1.176,1.882-2.046c0,0,1.285,0.653,1.882,2.157l-2.017,1.679L28.119,18.323z"/>
	<path fill="#BD7F1C" d="M24.519,26.106c0,0-0.264-1.849,0.253-3.539l0,0l4.712,2.305l-2.932,1.929l-2.03-0.695"/>
</g>
</svg>
